# xmcd
#
# Track frame offsets:
#        150
#        22319
#        48340
#        65037
#        80494
#        100518
#        127747
#        148075
#        169237
#        183689
#        204538
#        214833
#        227545
#        245894
#        260514
#        276115
#        293154
#
# Disc length: 4187 seconds
#
# Revision: 2
# Processed by: cddbd v1.5.2PL0 Copyright (c) Steve Scherf et al.
# Submitted via: jack 3.1.1
#
DISCID=07105911
DTITLE=Various Artist - Classic Rock Magazine Sideshow Oct 2011
DYEAR=2011
DGENRE=Rock
TTITLE0=When the Mountain Blows [Big Wheel Stunt Show]
TTITLE1=Glorious in Black [Black Owls]
TTITLE2=Demonology [Swilson]
TTITLE3=Back of the Van [Mothershaker]
TTITLE4=Ocean Dirge [Amos Blood]
TTITLE5=Summertime [Glitter Wizard]
TTITLE6=Yesterdays and Tomorrows [Backdraft]
TTITLE7=Capricorn [Orchid]
TTITLE8=Bear Attack [Mad Anthony]
TTITLE9=Asshole Parade [Grifter]
TTITLE10=Mommy Don't Know [The Lifetakers]
TTITLE11=Letters from Hollywood [Sugar Louise]
TTITLE12=Blow n' Smoke [Zombie Shaker Box]
TTITLE13=Black Knight [Le Pecheur]
TTITLE14=Kings of Self Destruction [Zeroking]
TTITLE15=Devil's Backbone [The Amboys]
TTITLE16=Whiskey Love [Trash Titan]
EXTD=Location:  - UPC:  - Catalogue number: ROC163CD-11-11 - Label: Futur
EXTD=e Publishing - ASIN:  - Release Date: 2011 09 12 - Discogs:  - MUSICB
EXTD=RAINZ_ALBUMID:  - AMG: ;
EXTT0=
EXTT1=
EXTT2=
EXTT3=
EXTT4=
EXTT5=
EXTT6=
EXTT7=
EXTT8=
EXTT9=
EXTT10=
EXTT11=
EXTT12=
EXTT13=
EXTT14=
EXTT15=
EXTT16=
PLAYORDER=
